<?xml version="1.0" standalone="no"?>
<!DOCTYPE svg PUBLIC "-//W3C//DTD SVG 20010904//EN"
 "http://www.w3.org/TR/2001/REC-SVG-20010904/DTD/svg10.dtd">
<svg version="1.0" xmlns="http://www.w3.org/2000/svg"
 width="300.000000pt" height="300.000000pt" viewBox="0 0 300.000000 300.000000"
 preserveAspectRatio="xMidYMid meet">
<metadata>
Created by potrace 1.10, written by Peter Selinger 2001-2011
</metadata>
<g transform="translate(0.000000,300.000000) scale(0.100000,-0.100000)"
fill="#000000" stroke="none">
<path d="M130 2907 c-13 -7 -30 -24 -37 -37 -10 -20 -12 -306 -10 -1383 l2
-1359 28 -24 28 -24 1359 0 1359 0 28 24 28 24 0 1371 0 1370 -23 23 -23 23
-1357 2 c-1076 2 -1362 0 -1382 -10z m2750 -1407 l0 -1380 -1380 0 -1380 0 0
1380 0 1380 1380 0 1380 0 0 -1380z"/>
<path d="M724 1664 c-22 -12 -56 -15 -146 -12 l-117 3 -5 -29 c-3 -16 -6 -32
-6 -37 0 -17 15 -9 25 14 7 16 20 23 48 25 l37 3 0 -98 c0 -117 -6 -143 -31
-143 -11 0 -19 -4 -19 -8 0 -5 34 -9 75 -9 41 0 75 4 75 9 0 4 -9 8 -19 8 -27
0 -31 18 -31 136 l0 105 48 -3 47 -3 3 -117 c2 -105 1 -118 -14 -118 -40 0 2
-15 47 -17 47 -1 65 9 34 21 -21 8 -21 99 0 116 30 25 45 4 45 -60 0 -33 -4
-60 -10 -60 -5 0 -10 -4 -10 -8 0 -5 23 -9 50 -9 55 -1 57 1 35 24 -11 10 -15
32 -14 69 3 80 -24 99 -95 69 -18 -8 -19 -4 -13 63 3 39 2 74 -2 76 -4 3 -21
-2 -37 -10z"/>
<path d="M1229 1631 c-47 -47 -35 -89 39 -136 49 -31 64 -64 42 -91 -7 -7 -22
-14 -34 -14 -24 0 -66 38 -66 58 0 7 -4 12 -10 12 -16 0 -12 -57 6 -74 10 -10
33 -16 65 -16 42 0 55 5 80 29 50 50 34 100 -46 146 -45 27 -58 45 -49 70 14
35 76 25 89 -15 9 -28 25 -25 25 4 0 36 -26 56 -71 56 -31 0 -47 -7 -70 -29z"/>
<path d="M2185 1630 c-3 -5 -19 -10 -35 -10 -18 0 -34 -8 -44 -22 -17 -24 -13
-39 6 -20 7 7 26 12 43 12 24 0 35 6 43 25 11 24 0 36 -13 15z"/>
<path d="M1623 1543 c-33 -13 -41 -27 -23 -38 12 -7 14 -102 2 -108 -4 -3 -19
-3 -35 0 -26 5 -27 8 -27 67 0 68 -10 86 -49 86 -33 0 -91 -35 -91 -55 0 -24
27 -18 48 12 21 29 42 24 42 -11 0 -17 -10 -27 -40 -39 -22 -8 -43 -23 -47
-33 -14 -37 41 -70 73 -43 11 9 18 9 26 1 15 -15 51 -15 66 0 8 8 12 8 12 1 0
-6 20 -10 50 -10 28 0 50 4 50 9 0 4 -5 8 -10 8 -7 0 -10 24 -8 63 3 54 5 62
23 62 18 0 20 -8 23 -62 2 -39 -1 -63 -8 -63 -5 0 -10 -4 -10 -9 0 -5 23 -9
50 -9 28 0 50 4 50 9 0 5 -5 9 -10 9 -7 0 -10 24 -8 63 3 54 5 62 23 62 18 0
20 -8 23 -62 2 -39 -1 -63 -8 -63 -5 0 -10 -4 -10 -9 0 -5 23 -9 50 -9 28 0
50 4 50 9 0 5 -4 9 -10 9 -6 0 -10 26 -10 58 0 88 -34 122 -92 91 -15 -8 -26
-8 -44 2 -18 9 -30 10 -49 1 -32 -15 -33 -15 -37 1 -2 12 -8 12 -35 0z m-133
-118 c0 -16 -6 -25 -15 -25 -21 0 -31 30 -14 41 23 14 29 11 29 -16z"/>
<path d="M2293 1542 c-34 -16 -40 -26 -23 -37 12 -7 14 -102 2 -108 -4 -3 -19
-3 -34 0 -26 5 -27 8 -30 71 -3 63 -5 67 -31 76 -23 8 -36 6 -65 -9 -20 -11
-38 -28 -40 -37 -5 -27 24 -22 46 9 21 29 42 24 42 -11 0 -17 -10 -27 -40 -39
-22 -8 -43 -23 -47 -33 -14 -37 41 -70 73 -43 11 9 18 9 26 1 15 -15 51 -15
66 0 8 8 12 8 12 1 0 -6 23 -10 55 -10 30 0 55 4 55 8 0 5 -7 9 -15 9 -12 0
-15 13 -15 60 l0 60 30 -6 c22 -5 31 -2 36 10 10 27 -11 42 -40 28 -19 -9 -25
-8 -28 2 -2 11 -9 10 -35 -2z m-133 -117 c0 -16 -6 -25 -15 -25 -21 0 -31 30
-14 41 23 14 29 11 29 -16z"/>
<path d="M949 1521 c-21 -22 -29 -39 -29 -66 0 -76 89 -114 140 -60 28 29 21
44 -11 22 -23 -17 -47 -13 -66 11 -27 34 -16 47 39 47 59 0 67 11 38 48 -29
37 -72 36 -111 -2z m76 -11 c0 -9 -11 -16 -27 -18 -30 -4 -36 6 -16 26 16 16
43 11 43 -8z"/>
<path d="M1941 1531 c-30 -30 -26 -45 20 -84 25 -20 39 -39 35 -46 -11 -17
-34 -13 -53 9 -24 28 -33 25 -24 -7 5 -21 15 -29 35 -31 44 -5 76 6 85 30 12
34 1 58 -35 80 -37 22 -43 35 -18 45 11 4 23 -3 36 -18 l19 -24 -3 30 c-3 27
-7 30 -40 33 -27 2 -43 -3 -57 -17z"/>
<path d="M2443 1530 c-34 -20 -45 -50 -19 -50 8 0 23 12 34 27 22 30 42 24 42
-12 0 -19 -9 -26 -42 -37 -46 -16 -61 -45 -38 -74 15 -17 51 -19 67 -3 8 8 16
7 30 -2 22 -13 73 -5 73 11 0 6 -9 10 -20 10 -18 0 -20 7 -20 65 0 53 -3 66
-19 75 -29 15 -52 12 -88 -10z m57 -105 c0 -16 -6 -25 -15 -25 -21 0 -31 30
-14 41 23 14 29 11 29 -16z"/>
</g>
</svg>
